<?xml version="1.0" encoding="UTF-8"?>
<svg xmlns="http://www.w3.org/2000/svg" width="36" height="36" viewBox="0 0 36 36" fill="none"> <circle cx="18" cy="18" r="18" fill="#E31C1C"/> <path d="M24.488 23.832V27H11.792V24.48L18.272 18.36C18.96 17.704 19.424 17.144 19.664 16.68C19.904 16.2 20.024 15.728 20.024 15.264C20.024 14.592 19.792 14.08 19.328 13.728C18.88 13.36 18.216 13.176 17.336 13.176C16.6 13.176 15.936 13.32 15.344 13.608C14.752 13.88 14.256 14.296 13.856 14.856L11.024 13.032C11.68 12.056 12.584 11.296 13.736 10.752C14.888 10.192 16.208 9.912 17.696 9.912C18.944 9.912 20.032 10.12 20.96 10.536C21.904 10.936 22.632 11.512 23.144 12.264C23.672 13 23.936 13.872 23.936 14.88C23.936 15.792 23.744 16.648 23.36 17.448C22.976 18.248 22.232 19.16 21.128 20.184L17.264 23.832H24.488Z" fill="white"/> </svg>
