<?xml version="1.0" encoding="UTF-8"?>
<svg xmlns="http://www.w3.org/2000/svg" width="36" height="36" viewBox="0 0 36 36" fill="none"> <circle cx="18" cy="18" r="18" fill="#E31C1C"/> <path d="M19.784 17.04C21.256 17.28 22.384 17.832 23.168 18.696C23.952 19.544 24.344 20.6 24.344 21.864C24.344 22.84 24.088 23.744 23.576 24.576C23.064 25.392 22.28 26.048 21.224 26.544C20.184 27.04 18.904 27.288 17.384 27.288C16.2 27.288 15.032 27.136 13.88 26.832C12.744 26.512 11.776 26.064 10.976 25.488L12.488 22.512C13.128 22.992 13.864 23.368 14.696 23.64C15.544 23.896 16.408 24.024 17.288 24.024C18.264 24.024 19.032 23.84 19.592 23.472C20.152 23.088 20.432 22.552 20.432 21.864C20.432 20.488 19.384 19.8 17.288 19.8H15.512V17.232L18.968 13.32H11.816V10.2H23.576V12.72L19.784 17.04Z" fill="white"/> </svg>
