<?xml version="1.0" encoding="UTF-8"?>
<svg xmlns="http://www.w3.org/2000/svg" width="360" height="135" viewBox="0 0 360 135" fill="none"> <mask id="path-1-inside-1" fill="white"> <path fill-rule="evenodd" clip-rule="evenodd" d="M62.7488 13L49.7488 0L36.7488 13H10C4.47715 13 0 17.4772 0 23V125C0 130.523 4.47716 135 10 135H350C355.523 135 360 130.523 360 125V23C360 17.4772 355.523 13 350 13H62.7488Z"/> </mask> <path fill-rule="evenodd" clip-rule="evenodd" d="M62.7488 13L49.7488 0L36.7488 13H10C4.47715 13 0 17.4772 0 23V125C0 130.523 4.47716 135 10 135H350C355.523 135 360 130.523 360 125V23C360 17.4772 355.523 13 350 13H62.7488Z" fill="white"/> <path d="M49.7488 0L50.4559 -0.707107L49.7488 -1.41421L49.0417 -0.707107L49.7488 0ZM62.7488 13L62.0417 13.7071L62.3346 14H62.7488V13ZM36.7488 13V14H37.163L37.4559 13.7071L36.7488 13ZM49.0417 0.707107L62.0417 13.7071L63.4559 12.2929L50.4559 -0.707107L49.0417 0.707107ZM37.4559 13.7071L50.4559 0.707107L49.0417 -0.707107L36.0417 12.2929L37.4559 13.7071ZM10 14H36.7488V12H10V14ZM1 23C1 18.0294 5.02944 14 10 14V12C3.92487 12 -1 16.9249 -1 23H1ZM1 125V23H-1V125H1ZM10 134C5.02944 134 1 129.971 1 125H-1C-1 131.075 3.92487 136 10 136V134ZM350 134H10V136H350V134ZM359 125C359 129.971 354.971 134 350 134V136C356.075 136 361 131.075 361 125H359ZM359 23V125H361V23H359ZM350 14C354.971 14 359 18.0294 359 23H361C361 16.9249 356.075 12 350 12V14ZM62.7488 14H350V12H62.7488V14Z" fill="#D4DBE1" mask="url(#path-1-inside-1)"/> </svg>
