<?xml version="1.0" encoding="UTF-8"?>
<svg xmlns="http://www.w3.org/2000/svg" width="50" height="50" viewBox="0 0 50 50" fill="none"> <g clip-path="url(#clip0)"> <path d="M24.826 0C11.137 0 0 11.137 0 24.826C0 38.514 11.137 49.652 24.826 49.652C38.514 49.652 49.652 38.514 49.652 24.826C49.652 11.137 38.516 0 24.826 0ZM31 25.7H26.961C26.961 32.153 26.961 40.096 26.961 40.096H20.976C20.976 40.096 20.976 32.23 20.976 25.7H18.131V20.612H20.976V17.321C20.976 14.964 22.096 11.281 27.016 11.281L31.451 11.298V16.237C31.451 16.237 28.756 16.237 28.232 16.237C27.708 16.237 26.963 16.499 26.963 17.623V20.613H31.523L31 25.7Z" fill="#66A0E2"/> </g> <defs> <clipPath id="clip0"> <rect width="49.652" height="49.652" fill="white"/> </clipPath> </defs> </svg>
