<?xml version="1.0" encoding="UTF-8"?>
<svg xmlns="http://www.w3.org/2000/svg" width="90" height="90" viewBox="0 0 90 90" fill="none"> <g clip-path="url(#clip0)"> <path d="M58.255 23.88H31.503C27.233 23.88 23.759 27.354 23.759 31.624V58.376C23.759 62.646 27.233 66.121 31.503 66.121H58.255C62.525 66.121 66 62.647 66 58.376V31.624C66 27.354 62.526 23.88 58.255 23.88ZM44.879 58.906C37.212 58.906 30.974 52.668 30.974 45C30.974 37.333 37.212 31.095 44.879 31.095C52.547 31.095 58.785 37.333 58.785 45C58.785 52.667 52.546 58.906 44.879 58.906ZM59.232 33.97C57.417 33.97 55.941 32.494 55.941 30.68C55.941 28.866 57.417 27.39 59.232 27.39C61.046 27.39 62.522 28.866 62.522 30.68C62.522 32.494 61.046 33.97 59.232 33.97Z" fill="white"/> <path d="M58.255 23.88H31.503C27.233 23.88 23.759 27.354 23.759 31.624V58.376C23.759 62.646 27.233 66.121 31.503 66.121H58.255C62.525 66.121 66 62.647 66 58.376V31.624C66 27.354 62.526 23.88 58.255 23.88ZM44.879 58.906C37.212 58.906 30.974 52.668 30.974 45C30.974 37.333 37.212 31.095 44.879 31.095C52.547 31.095 58.785 37.333 58.785 45C58.785 52.667 52.546 58.906 44.879 58.906ZM59.232 33.97C57.417 33.97 55.941 32.494 55.941 30.68C55.941 28.866 57.417 27.39 59.232 27.39C61.046 27.39 62.522 28.866 62.522 30.68C62.522 32.494 61.046 33.97 59.232 33.97Z" fill="url(#paint0_linear)"/> <path d="M44.879 36.971C40.453 36.971 36.849 40.573 36.849 44.999C36.849 49.427 40.453 53.03 44.879 53.03C49.307 53.03 52.908 49.427 52.908 44.999C52.908 40.574 49.306 36.971 44.879 36.971Z" fill="white"/> <path d="M44.879 36.971C40.453 36.971 36.849 40.573 36.849 44.999C36.849 49.427 40.453 53.03 44.879 53.03C49.307 53.03 52.908 49.427 52.908 44.999C52.908 40.574 49.306 36.971 44.879 36.971Z" fill="url(#paint1_linear)"/> <path d="M44.879 0C20.094 0 0 20.094 0 44.879C0 69.664 20.094 89.758 44.879 89.758C69.664 89.758 89.758 69.664 89.758 44.879C89.758 20.094 69.664 0 44.879 0ZM71.875 58.376C71.875 65.887 65.766 71.996 58.255 71.996H31.503C23.993 71.996 17.883 65.887 17.883 58.376V31.624C17.883 24.114 23.993 18.004 31.503 18.004H58.255C65.766 18.004 71.875 24.114 71.875 31.624V58.376Z" fill="white"/> <path d="M44.879 0C20.094 0 0 20.094 0 44.879C0 69.664 20.094 89.758 44.879 89.758C69.664 89.758 89.758 69.664 89.758 44.879C89.758 20.094 69.664 0 44.879 0ZM71.875 58.376C71.875 65.887 65.766 71.996 58.255 71.996H31.503C23.993 71.996 17.883 65.887 17.883 58.376V31.624C17.883 24.114 23.993 18.004 31.503 18.004H58.255C65.766 18.004 71.875 24.114 71.875 31.624V58.376Z" fill="url(#paint2_linear)"/> </g> <defs> <linearGradient id="paint0_linear" x1="44.8795" y1="23.88" x2="44.8795" y2="66.121" gradientUnits="userSpaceOnUse"> <stop stop-color="#3341EA"/> <stop offset="0.425414" stop-color="#AB138C"/> <stop offset="0.767956" stop-color="#E43443"/> <stop offset="1" stop-color="#F9DA7B"/> </linearGradient> <linearGradient id="paint1_linear" x1="44.8785" y1="36.971" x2="44.8785" y2="53.03" gradientUnits="userSpaceOnUse"> <stop stop-color="#3341EA"/> <stop offset="0.425414" stop-color="#AB138C"/> <stop offset="0.767956" stop-color="#E43443"/> <stop offset="1" stop-color="#F9DA7B"/> </linearGradient> <linearGradient id="paint2_linear" x1="44.879" y1="0" x2="44.879" y2="89.758" gradientUnits="userSpaceOnUse"> <stop stop-color="#3341EA"/> <stop offset="0.425414" stop-color="#AB138C"/> <stop offset="0.767956" stop-color="#E43443"/> <stop offset="1" stop-color="#F9DA7B"/> </linearGradient> <clipPath id="clip0"> <rect width="89.758" height="89.758" fill="white"/> </clipPath> </defs> </svg>
