<?xml version="1.0" encoding="UTF-8"?>
<svg xmlns="http://www.w3.org/2000/svg" width="57" height="57" viewBox="0 0 57 57" fill="none"> <path d="M46.2278 1.96976H44.1965V0.923326C44.1965 0.413281 43.7832 0 43.2732 0C42.7631 0 42.3499 0.413281 42.3499 0.923326V1.96976H38.2872V0.923326C38.2872 0.413281 37.874 0 37.3639 0C36.8539 0 36.4406 0.413281 36.4406 0.923326V1.96976H32.3779V0.923326C32.3779 0.413281 31.9647 0 31.4546 0C30.9446 0 30.5313 0.413281 30.5313 0.923326V1.96976H26.4687V0.923326C26.4687 0.413281 26.0554 0 25.5453 0C25.0353 0 24.622 0.413281 24.622 0.923326V1.96976H20.5594V0.923326C20.5594 0.413281 20.1461 0 19.636 0C19.126 0 18.7127 0.413281 18.7127 0.923326V1.96976H14.6501V0.923326C14.6501 0.413281 14.2368 0 13.7268 0C13.2167 0 12.8034 0.413281 12.8034 0.923326V1.96976H10.7721C9.17686 1.96976 7.87903 3.26759 7.87903 4.86285V54.1069C7.87903 55.7022 9.17686 57 10.7721 57H46.2278C47.8231 57 49.1209 55.7022 49.1209 54.1069V4.86285C49.1209 3.26759 47.8231 1.96976 46.2278 1.96976ZM47.2743 54.1069C47.2743 54.6839 46.8049 55.1533 46.2278 55.1533H10.7721C10.1951 55.1533 9.72568 54.6839 9.72568 54.1069V4.86285C9.72568 4.28583 10.1951 3.81641 10.7721 3.81641H12.8034V4.86285C12.8034 5.3729 13.2167 5.78618 13.7268 5.78618C14.2368 5.78618 14.6501 5.3729 14.6501 4.86285V3.81641H18.7127V4.86285C18.7127 5.3729 19.126 5.78618 19.636 5.78618C20.1461 5.78618 20.5594 5.3729 20.5594 4.86285V3.81641H24.622V4.86285C24.622 5.3729 25.0353 5.78618 25.5453 5.78618C26.0554 5.78618 26.4687 5.3729 26.4687 4.86285V3.81641H30.5313V4.86285C30.5313 5.3729 30.9446 5.78618 31.4546 5.78618C31.9647 5.78618 32.3779 5.3729 32.3779 4.86285V3.81641H36.4406V4.86285C36.4406 5.3729 36.8539 5.78618 37.3639 5.78618C37.874 5.78618 38.2872 5.3729 38.2872 4.86285V3.81641H42.3499V4.86285C42.3499 5.3729 42.7631 5.78618 43.2732 5.78618C43.7832 5.78618 44.1965 5.3729 44.1965 4.86285V3.81641H46.2278C46.8049 3.81641 47.2743 4.28583 47.2743 4.86285V54.1069Z" fill="#FFEA00"/> <path d="M25.5453 14.6501H39.3337C39.8437 14.6501 40.257 14.2368 40.257 13.7268C40.257 13.2167 39.8437 12.8035 39.3337 12.8035H25.5453C25.0353 12.8035 24.622 13.2167 24.622 13.7268C24.622 14.2368 25.0353 14.6501 25.5453 14.6501Z" fill="#FFEA00"/> <path d="M43.2732 16.743H25.5453C25.0353 16.743 24.622 17.1563 24.622 17.6663C24.622 18.1764 25.0353 18.5896 25.5453 18.5896H43.2732C43.7832 18.5896 44.1965 18.1764 44.1965 17.6663C44.1965 17.1563 43.7832 16.743 43.2732 16.743Z" fill="#FFEA00"/> <path d="M20.9528 12.0889L16.6814 16.3606L14.3797 14.0588C14.019 13.6983 13.4345 13.6983 13.0739 14.0588C12.7133 14.4195 12.7133 15.004 13.0739 15.3646L16.0286 18.3193C16.2089 18.4995 16.4453 18.5896 16.6815 18.5896C16.9178 18.5896 17.1541 18.4995 17.3345 18.3193L22.2589 13.3949C22.6195 13.0341 22.6195 12.4496 22.2589 12.089C21.8981 11.7286 21.3135 11.7286 20.9528 12.0889Z" fill="#FFEA00"/> <path d="M25.5453 24.4989H39.3337C39.8437 24.4989 40.257 24.0857 40.257 23.5756C40.257 23.0656 39.8437 22.6523 39.3337 22.6523H25.5453C25.0353 22.6523 24.622 23.0656 24.622 23.5756C24.622 24.0857 25.0353 24.4989 25.5453 24.4989Z" fill="#FFEA00"/> <path d="M43.2732 26.5918H25.5453C25.0353 26.5918 24.622 27.0051 24.622 27.5151C24.622 28.0252 25.0353 28.4384 25.5453 28.4384H43.2732C43.7832 28.4384 44.1965 28.0252 44.1965 27.5151C44.1965 27.0051 43.7832 26.5918 43.2732 26.5918Z" fill="#FFEA00"/> <path d="M20.9528 21.9377L16.6814 26.2094L14.3797 23.9076C14.019 23.5471 13.4345 23.5471 13.0739 23.9076C12.7133 24.2683 12.7133 24.8528 13.0739 25.2134L16.0286 28.1681C16.2089 28.3483 16.4453 28.4384 16.6815 28.4384C16.9178 28.4384 17.1541 28.3483 17.3345 28.1681L22.2589 23.2437C22.6195 22.883 22.6195 22.2984 22.2589 21.9378C21.8981 21.5774 21.3135 21.5774 20.9528 21.9377Z" fill="#FFEA00"/> <path d="M25.5453 34.3477H39.3337C39.8437 34.3477 40.257 33.9344 40.257 33.4244C40.257 32.9143 39.8437 32.5011 39.3337 32.5011H25.5453C25.0353 32.5011 24.622 32.9143 24.622 33.4244C24.622 33.9344 25.0353 34.3477 25.5453 34.3477Z" fill="#FFEA00"/> <path d="M43.2732 36.4406H25.5453C25.0353 36.4406 24.622 36.8539 24.622 37.3639C24.622 37.874 25.0353 38.2873 25.5453 38.2873H43.2732C43.7832 38.2873 44.1965 37.874 44.1965 37.3639C44.1965 36.8539 43.7832 36.4406 43.2732 36.4406Z" fill="#FFEA00"/> <path d="M20.9528 31.7865L16.6814 36.0582L14.3797 33.7564C14.019 33.396 13.4345 33.396 13.0739 33.7564C12.7133 34.1171 12.7133 34.7017 13.0739 35.0623L16.0286 38.0169C16.2089 38.1971 16.4453 38.2873 16.6815 38.2873C16.9178 38.2873 17.1541 38.1971 17.3345 38.0169L22.2589 33.0925C22.6195 32.7318 22.6195 32.1473 22.2589 31.7867C21.8981 31.4262 21.3135 31.4262 20.9528 31.7865Z" fill="#FFEA00"/> <path d="M25.5453 44.1966H39.3337C39.8437 44.1966 40.257 43.7833 40.257 43.2732C40.257 42.7632 39.8437 42.3499 39.3337 42.3499H25.5453C25.0353 42.3499 24.622 42.7632 24.622 43.2732C24.622 43.7833 25.0353 44.1966 25.5453 44.1966Z" fill="#FFEA00"/> <path d="M43.2732 46.2894H25.5453C25.0353 46.2894 24.622 46.7027 24.622 47.2128C24.622 47.7228 25.0353 48.1361 25.5453 48.1361H43.2732C43.7832 48.1361 44.1965 47.7228 44.1965 47.2128C44.1965 46.7027 43.7832 46.2894 43.2732 46.2894Z" fill="#FFEA00"/> <path d="M20.9528 41.6354L16.6814 45.907L14.3797 43.6052C14.019 43.2448 13.4345 43.2448 13.0739 43.6052C12.7133 43.966 12.7133 44.5505 13.0739 44.9111L16.0286 47.8657C16.2089 48.0459 16.4453 48.1361 16.6815 48.1361C16.9178 48.1361 17.1541 48.0459 17.3345 47.8657L22.2589 42.9413C22.6195 42.5806 22.6195 41.9961 22.2589 41.6355C21.8981 41.275 21.3135 41.275 20.9528 41.6354Z" fill="#FFEA00"/> </svg>
