<?xml version="1.0" encoding="UTF-8"?>
<svg xmlns="http://www.w3.org/2000/svg" width="218" height="55" viewBox="0 0 218 55" fill="none"> <path d="M2.422 48V43.212H8.246V48H9.282V38.2H8.246V42.274H2.422V38.2H1.386V48H2.422ZM14.6824 47.258C13.6324 47.258 12.8344 46.782 12.8344 45.872C12.8344 45.032 13.6044 44.514 14.8364 44.514C15.6064 44.514 16.3484 44.738 17.0344 45.186V46.124C16.5444 46.74 15.6484 47.258 14.6824 47.258ZM14.4024 48.168C15.5364 48.168 16.4464 47.776 17.1324 46.978C17.2444 47.706 17.7484 48.056 18.4064 48.056C18.7144 48.056 18.9384 48 19.0784 47.902V47.118C18.9664 47.174 18.8404 47.202 18.6864 47.202C18.2944 47.202 18.0424 46.88 18.0424 46.362V43.576C18.0424 41.938 16.8244 41.07 15.0184 41.07C14.0524 41.07 13.2544 41.28 12.5964 41.686V42.666C13.2824 42.204 14.0104 41.98 14.8084 41.98C16.2924 41.98 17.0344 42.54 17.0344 43.674V44.346C16.2924 43.912 15.4804 43.688 14.5984 43.688C13.8004 43.688 13.1424 43.884 12.6104 44.29C12.0924 44.696 11.8264 45.242 11.8264 45.928C11.8264 46.628 12.0784 47.174 12.5684 47.58C13.0724 47.972 13.6884 48.168 14.4024 48.168ZM21.3569 50.002V48H27.7129V50.002H28.6929V47.118H27.4329V41.238H22.4069L22.3929 42.19C22.3789 44.472 22.0009 46.124 21.2449 47.118H20.3909V50.002H21.3569ZM22.3649 47.118C23.0229 46.068 23.3449 44.542 23.3449 42.526V42.12H26.4249V47.118H22.3649ZM34.145 48.168C35.167 48.168 35.951 47.958 36.511 47.524V46.628C35.853 47.048 35.125 47.258 34.341 47.258C32.717 47.258 31.569 46.32 31.457 44.864H37.015V44.584C37.015 43.058 36.119 41.07 33.851 41.07C32.843 41.07 32.017 41.406 31.373 42.092C30.743 42.764 30.421 43.604 30.421 44.626C30.421 45.662 30.771 46.516 31.485 47.174C32.199 47.832 33.095 48.168 34.145 48.168ZM31.471 44.038C31.513 43.478 31.751 43.002 32.157 42.596C32.577 42.19 33.123 41.98 33.809 41.98C34.523 41.98 35.055 42.19 35.405 42.624C35.769 43.044 35.965 43.52 35.993 44.038H31.471ZM38.5422 41.238L41.7202 44.374L38.2202 48H39.5362L42.6722 44.724V48H43.6802V44.724L46.8162 48H48.1462L44.6462 44.374L47.8102 41.238H46.5362L43.6802 44.122V41.238H42.6722V44.122L39.8162 41.238H38.5422ZM51.3183 48V44.99H55.4763V48H56.4843V41.238H55.4763V44.08H51.3183V41.238H50.3103V48H51.3183ZM67.1569 48V41.238H66.1489V48H67.1569ZM62.4949 48C64.1049 48 65.0289 47.076 65.0289 45.746C65.0289 44.388 64.0349 43.506 62.4529 43.506H60.4369V41.238H59.4289V48H62.4949ZM60.4369 44.388H62.3129C63.3769 44.388 64.0069 44.878 64.0069 45.76C64.0069 46.614 63.3769 47.118 62.3129 47.118H60.4369V44.388ZM73.3264 48.168C74.3484 48.168 75.1324 47.958 75.6924 47.524V46.628C75.0344 47.048 74.3064 47.258 73.5224 47.258C71.8984 47.258 70.7504 46.32 70.6384 44.864H76.1964V44.584C76.1964 43.058 75.3004 41.07 73.0324 41.07C72.0244 41.07 71.1984 41.406 70.5544 42.092C69.9244 42.764 69.6024 43.604 69.6024 44.626C69.6024 45.662 69.9524 46.516 70.6664 47.174C71.3804 47.832 72.2764 48.168 73.3264 48.168ZM70.6524 44.038C70.6944 43.478 70.9324 43.002 71.3384 42.596C71.7584 42.19 72.3044 41.98 72.9904 41.98C73.7044 41.98 74.2364 42.19 74.5864 42.624C74.9504 43.044 75.1464 43.52 75.1744 44.038H70.6524ZM84.9733 48V42.12H87.4233V41.238H81.5153V42.12H83.9653V48H84.9733ZM89.9102 50.856C90.9182 50.856 91.7302 50.156 92.3322 48.756L95.6782 41.238H94.5862L92.2622 46.558L89.8682 41.238H88.7482L91.7582 47.748C91.1282 49.274 90.5962 49.946 89.7562 49.946C89.4342 49.946 89.1262 49.876 88.8322 49.722V50.66C89.0562 50.786 89.4202 50.856 89.9102 50.856ZM98.8658 46.922C99.4958 47.748 100.364 48.168 101.484 48.168C102.478 48.168 103.304 47.818 103.934 47.132C104.564 46.446 104.886 45.606 104.886 44.612C104.886 43.632 104.564 42.792 103.934 42.106C103.304 41.42 102.478 41.07 101.484 41.07C100.364 41.07 99.4958 41.49 98.8658 42.316V41.238H97.8578V50.8H98.8658V46.922ZM98.8658 43.506C99.2718 42.624 100.224 41.98 101.246 41.98C101.988 41.98 102.618 42.232 103.108 42.736C103.598 43.24 103.85 43.87 103.85 44.612C103.85 45.354 103.598 45.984 103.108 46.502C102.618 47.006 101.988 47.258 101.246 47.258C100.224 47.258 99.2578 46.628 98.8658 45.732V43.506ZM108.326 48V44.99H112.484V48H113.492V41.238H112.484V44.08H108.326V41.238H107.318V48H108.326ZM117.375 48L121.701 42.736V48H122.709V41.238H121.771L117.445 46.516V41.238H116.437V48H117.375ZM125.651 41.238V48H126.659V44.668L130.313 48H131.755L127.681 44.29L131.251 41.238H129.879L126.659 44.024V41.238H125.651ZM134.723 48L139.049 42.736V48H140.057V41.238H139.119L134.793 46.516V41.238H133.785V48H134.723ZM147.335 50.002V48H153.691V50.002H154.671V47.118H153.411V41.238H148.385L148.371 42.19C148.357 44.472 147.979 46.124 147.223 47.118H146.369V50.002H147.335ZM148.343 47.118C149.001 46.068 149.323 44.542 149.323 42.526V42.12H152.403V47.118H148.343ZM155.993 48C156.063 48.014 156.161 48.014 156.287 48.014C157.351 48.07 158.009 47.342 158.317 46.53C158.555 45.984 158.667 45.13 158.723 44.514C158.751 44.206 158.765 43.842 158.779 43.422L158.821 42.12H161.901V48H162.909V41.238H157.855L157.799 43.394C157.757 44.5 157.687 45.228 157.463 45.97C157.253 46.698 156.861 47.09 156.259 47.09C156.147 47.09 156.063 47.09 155.993 47.076V48ZM166.46 48L168.35 45.48H170.52V48H171.528V41.238H168.042C166.474 41.238 165.62 42.078 165.62 43.296C165.62 44.374 166.222 45.116 167.328 45.298L165.312 48H166.46ZM168.196 44.598C167.202 44.598 166.656 44.164 166.656 43.366C166.656 42.568 167.202 42.12 168.196 42.12H170.52V44.598H168.196ZM178.805 50.002V48H185.161V50.002H186.141V47.118H184.881V41.238H179.855L179.841 42.19C179.827 44.472 179.449 46.124 178.693 47.118H177.839V50.002H178.805ZM179.813 47.118C180.471 46.068 180.793 44.542 180.793 42.526V42.12H183.873V47.118H179.813ZM188.892 42.12C188.206 42.806 187.87 43.646 187.87 44.626C187.87 45.606 188.206 46.446 188.892 47.132C189.578 47.818 190.446 48.168 191.524 48.168C192.602 48.168 193.47 47.818 194.156 47.132C194.842 46.446 195.178 45.606 195.178 44.626C195.178 43.646 194.842 42.806 194.156 42.12C193.47 41.42 192.602 41.07 191.524 41.07C190.446 41.07 189.578 41.42 188.892 42.12ZM194.142 44.626C194.142 45.368 193.89 45.998 193.4 46.502C192.91 47.006 192.28 47.258 191.524 47.258C190.768 47.258 190.138 47.006 189.648 46.502C189.158 45.998 188.906 45.368 188.906 44.626C188.906 43.87 189.158 43.24 189.648 42.736C190.138 42.232 190.768 41.98 191.524 41.98C192.28 41.98 192.91 42.232 193.4 42.736C193.89 43.24 194.142 43.87 194.142 44.626ZM198.595 48V42.624L201.101 45.55H201.493L204.013 42.624V48H204.993V41.238H204.013L201.297 44.374L198.595 41.238H197.615V48H198.595ZM210.219 47.258C209.169 47.258 208.371 46.782 208.371 45.872C208.371 45.032 209.141 44.514 210.373 44.514C211.143 44.514 211.885 44.738 212.571 45.186V46.124C212.081 46.74 211.185 47.258 210.219 47.258ZM209.939 48.168C211.073 48.168 211.983 47.776 212.669 46.978C212.781 47.706 213.285 48.056 213.943 48.056C214.251 48.056 214.475 48 214.615 47.902V47.118C214.503 47.174 214.377 47.202 214.223 47.202C213.831 47.202 213.579 46.88 213.579 46.362V43.576C213.579 41.938 212.361 41.07 210.555 41.07C209.589 41.07 208.791 41.28 208.133 41.686V42.666C208.819 42.204 209.547 41.98 210.345 41.98C211.829 41.98 212.571 42.54 212.571 43.674V44.346C211.829 43.912 211.017 43.688 210.135 43.688C209.337 43.688 208.679 43.884 208.147 44.29C207.629 44.696 207.363 45.242 207.363 45.928C207.363 46.628 207.615 47.174 208.105 47.58C208.609 47.972 209.225 48.168 209.939 48.168Z" fill="white"/> <path d="M13.794 26V8.114H20.757V2.9H0.924V8.114H7.854V26H13.794ZM28.3215 26.462C29.4105 26.462 30.4665 26.231 31.9185 25.538C33.3705 24.845 34.8555 23.195 35.9115 20.918L44.3925 2.9H38.0895L33.6675 12.932L28.6185 2.9H22.0515L30.7305 18.773C29.7735 20.621 28.9155 21.215 27.2325 21.215C26.1105 21.215 25.0875 20.984 24.1965 20.489V25.571C25.2855 26.165 26.6385 26.462 28.3215 26.462ZM52.4948 26V17.387H56.8508C59.4248 17.387 61.4708 16.727 62.9887 15.374C64.5068 14.021 65.2658 12.272 65.2658 10.127C65.2658 7.982 64.5068 6.266 62.9887 4.913C61.4708 3.56 59.4248 2.9 56.8508 2.9H46.5548V26H52.4948ZM52.4948 7.916H56.4218C58.1708 7.916 59.2598 8.741 59.2598 10.193C59.2598 11.645 58.1378 12.503 56.4218 12.503H52.4948V7.916ZM74.1832 26V16.397H82.8952V26H88.8352V2.9H82.8952V11.117H74.1832V2.9H68.2432V26H74.1832ZM98.234 26L107.936 12.833V26H113.876V2.9H108.728L99.191 15.935V2.9H93.251V26H98.234ZM124.231 26V15.737L133.273 26H140.5L129.907 13.526L138.85 2.9H131.722L124.231 11.711V2.9H118.291V26H124.231ZM147.541 26L157.243 12.833V26H163.183V2.9H158.035L148.498 15.935V2.9H142.558V26H147.541ZM172.449 25.439C173.142 24.746 173.472 23.921 173.472 22.964C173.472 22.007 173.142 21.182 172.449 20.522C171.789 19.829 170.964 19.499 170.007 19.499C169.05 19.499 168.225 19.829 167.532 20.522C166.872 21.182 166.542 22.007 166.542 22.964C166.542 23.921 166.872 24.746 167.532 25.439C168.225 26.132 169.05 26.462 170.007 26.462C170.964 26.462 171.789 26.132 172.449 25.439Z" fill="#FFEA00"/> <path d="M182.105 29.708C183.887 29.708 185.147 28.772 185.903 26.918L189.989 16.856H186.677L184.769 22.364L182.735 16.856H179.351L183.239 25.694C182.861 26.63 182.357 26.99 181.547 26.99C181.025 26.99 180.521 26.846 180.071 26.558V29.294C180.647 29.564 181.331 29.708 182.105 29.708ZM194.424 26V22.22L197.52 26H201.498L197.286 20.96L200.904 16.856H197.142L194.424 20.096V16.856H191.238V26H194.424ZM205.797 29.6V24.974C206.445 25.82 207.363 26.234 208.533 26.234C209.739 26.234 210.729 25.784 211.521 24.866C212.313 23.948 212.709 22.796 212.709 21.428C212.709 20.06 212.313 18.926 211.521 18.008C210.729 17.09 209.739 16.622 208.533 16.622C207.327 16.622 206.427 17.036 205.797 17.882V16.856H202.611V29.6H205.797ZM207.615 23.534C206.805 23.534 206.211 23.21 205.797 22.562V20.294C206.211 19.646 206.805 19.322 207.615 19.322C208.749 19.322 209.541 20.222 209.541 21.428C209.541 22.634 208.749 23.534 207.615 23.534Z" fill="#0078FF"/> </svg>
