<?xml version="1.0" encoding="UTF-8"?>
<svg xmlns="http://www.w3.org/2000/svg" width="64" height="64" viewBox="0 0 64 64" fill="none"> <g clip-path="url(#clip0)"> <path d="M19.4999 46.2503C18.8099 46.2503 18.2499 46.8103 18.2499 47.5003C18.2499 48.1903 18.8099 48.7503 19.4999 48.7503C20.1899 48.7503 20.7499 48.1903 20.7499 47.5003C20.7499 46.8103 20.1899 46.2503 19.4999 46.2503Z" fill="#999999"/> <path d="M56.2677 23.7509L63.6338 16.3847C63.9437 16.0749 64.0685 15.6254 63.9632 15.2001C63.8578 14.7747 63.5373 14.4357 63.1185 14.3065L45.181 8.77024C43.564 3.57262 38.758 0.000991821 33.2497 0.000991821C28.1292 0.000991821 23.5497 3.12162 21.6543 7.82912L0.877562 14.3076C0.459938 14.4379 0.140688 14.7771 0.0360628 15.202C-0.0685622 15.6267 0.0564378 16.0755 0.365813 16.3849L7.92568 23.9447L3.15769 31.8916C2.96256 32.2167 2.92569 32.6129 3.05719 32.9685C3.18869 33.3241 3.47456 33.6007 3.83431 33.7206L10.7497 36.0256V55.2509C10.7497 55.7719 11.0729 56.2382 11.5608 56.4212C15.7892 58.0067 31.4998 63.899 31.5842 63.9289C31.8322 64.0162 32.1116 64.0281 32.3839 63.94C32.3876 63.9387 32.3913 63.938 32.3949 63.9367L54.8949 56.4367C55.4053 56.2666 55.7497 55.7889 55.7497 55.2509V35.5109L63.1244 33.1934C63.5414 33.0624 63.8597 32.7231 63.9638 32.2986C64.0678 31.8741 63.9427 31.4261 63.6337 31.117L56.2677 23.7509ZM45.7497 12.501C45.7497 12.1834 45.7363 11.8665 45.7124 11.5506L60.3992 16.0837L54.162 22.3207L43.971 18.9241C45.125 16.9952 45.7497 14.7695 45.7497 12.501ZM23.7906 9.24749C25.1782 5.21224 28.9796 2.50099 33.2497 2.50099C37.8498 2.50099 41.8395 5.61249 42.9519 10.0675C43.1495 10.8591 43.2497 11.6779 43.2497 12.501C43.2497 14.8227 42.4792 16.9989 41.0212 18.795C39.1115 21.1502 36.2789 22.501 33.2497 22.501C29.9752 22.501 26.9038 20.8937 25.0331 18.2005C23.8664 16.5247 23.2497 14.5537 23.2497 12.501C23.2497 11.3846 23.4316 10.29 23.7906 9.24749ZM3.59531 16.0789L20.8828 10.6884C20.7961 11.2856 20.7497 11.8906 20.7497 12.5009C20.7497 14.5135 21.2264 16.4629 22.1352 18.2217L9.83731 22.3207L3.59531 16.0789ZM6.10319 31.8416L10.0557 25.2539L30.1261 31.944L26.1737 38.5317C24.0306 37.8174 8.39143 32.6042 6.10319 31.8416ZM30.7497 60.9472L13.2497 54.3847V36.859C27.0184 41.4242 26.3461 41.2849 26.7294 41.2849C27.1592 41.2849 27.5707 41.0625 27.8016 40.6779L30.7497 35.764V60.9472ZM31.9997 29.9334L13.4527 23.7511L23.5519 20.3849C25.9157 23.2907 29.4741 25.001 33.2497 25.001C36.7424 25.001 40.025 23.5636 42.3862 21.0311L50.5467 23.751L31.9997 29.9334ZM53.2497 54.35L33.2497 61.0166V34.8141L37.6811 40.3529C38.0034 40.7557 38.54 40.919 39.0319 40.7645L53.2497 36.2966V54.35V54.35ZM39.0987 38.1231L34.0957 31.8699L54.162 25.1811L60.4075 31.4266L39.0987 38.1231Z" fill="#999999"/> <path d="M27.4388 49.0248L24.6588 47.9823C24.0125 47.74 23.292 48.0674 23.0495 48.7138C22.8071 49.3603 23.1346 50.0808 23.781 50.3231L26.561 51.3656C27.2087 51.6084 27.9283 51.2794 28.1703 50.6341C28.4127 49.9878 28.0852 49.2671 27.4388 49.0248Z" fill="#999999"/> <path d="M27.4388 54.3648L19.9388 51.5523C19.2924 51.3099 18.5719 51.6374 18.3294 52.2838C18.0869 52.9301 18.4145 53.6508 19.0609 53.8931L26.5609 56.7056C26.7055 56.7599 26.8538 56.7856 26.9997 56.7856C27.5058 56.7856 27.982 56.476 28.1703 55.9741C28.4128 55.3276 28.0853 54.6071 27.4388 54.3648Z" fill="#999999"/> <path d="M40.3839 7.86625C39.8958 7.378 39.1043 7.37812 38.616 7.86625L31.9999 14.4825L30.3838 12.8664C29.8956 12.3782 29.1041 12.3782 28.6159 12.8664C28.1276 13.3545 28.1278 14.146 28.6159 14.6342L31.116 17.1341C31.6041 17.6222 32.3956 17.6222 32.8839 17.1341L40.3839 9.63412C40.872 9.146 40.872 8.3545 40.3839 7.86625Z" fill="#999999"/> </g> <defs> <clipPath id="clip0"> <rect width="64" height="64" fill="white"/> </clipPath> </defs> </svg>
