<?xml version="1.0" encoding="UTF-8"?>
<svg xmlns="http://www.w3.org/2000/svg" width="379" height="383" viewBox="0 0 379 383" fill="none"> <path d="M378.931 111.258C378.901 110.946 378.839 110.638 378.746 110.338C378.675 110.063 378.578 109.795 378.456 109.538C378.321 109.289 378.162 109.054 377.982 108.835C377.794 108.581 377.581 108.348 377.344 108.139C377.254 108.062 377.208 107.955 377.111 107.885C376.963 107.806 376.811 107.736 376.656 107.675C376.121 107.348 375.517 107.151 374.892 107.099C374.731 107.057 374.566 107.023 374.4 107H231.8C231.68 107 231.579 107.059 231.461 107.068C231.146 107.098 230.835 107.161 230.534 107.256C230.26 107.327 229.994 107.423 229.74 107.544C229.49 107.679 229.254 107.838 229.035 108.019C228.781 108.206 228.548 108.42 228.339 108.657C228.262 108.747 228.155 108.793 228.085 108.889L103.885 279.089C103.806 279.237 103.736 279.389 103.675 279.545C103.35 280.078 103.153 280.681 103.1 281.304C103.057 281.467 103.024 281.633 103 281.8V378.4C103 380.941 105.059 383 107.6 383H250.2C251.542 382.921 252.798 382.31 253.688 381.302C253.754 381.224 253.853 381.195 253.915 381.111L378.115 210.911C378.194 210.764 378.264 210.612 378.325 210.456C378.65 209.922 378.847 209.32 378.9 208.697C378.943 208.533 378.976 208.367 379 208.2V111.6C379 111.479 378.94 111.377 378.931 111.258ZM245.6 373.8H112.2V286.4H245.6V373.8H245.6ZM247.863 277.2H116.65L234.137 116.2H365.35L247.863 277.2ZM369.8 206.702L254.8 364.294V283.298L369.8 125.706V206.702Z" fill="#FFEA00"/> <path d="M121.655 361.262C121.913 362.107 122.395 362.865 123.051 363.457C123.142 363.535 123.188 363.643 123.287 363.715C123.478 363.832 123.678 363.934 123.885 364.02C124.046 364.115 124.212 364.2 124.383 364.274C124.896 364.479 125.442 364.589 125.995 364.6L125.997 364.6L126 364.6H231.8C234.34 364.6 236.4 362.541 236.4 360V300.2C236.4 297.659 234.34 295.6 231.8 295.6H126C123.46 295.6 121.4 297.659 121.4 300.2V360C121.4 360.121 121.46 360.222 121.469 360.341C121.499 360.654 121.561 360.962 121.655 361.262ZM227.2 304.8V355.4H135.054L171.992 304.8H227.2ZM130.6 304.8H160.601L130.6 345.896V304.8Z" fill="#FFEA00"/> <g clip-path="url(#clip0)"> <path d="M95.3024 148.279C93.691 148.114 92.1137 148.82 91.1646 150.133C90.2155 151.445 90.0389 153.165 90.7012 154.643C91.3636 156.122 92.7642 157.135 94.3756 157.3C112.421 159.183 128.025 170.707 135.134 187.399C135.942 189.305 137.939 190.421 139.986 190.113C141.371 189.904 142.582 189.066 143.266 187.843C143.949 186.62 144.03 185.15 143.484 183.86C135.082 164.125 116.635 150.502 95.3024 148.279Z" fill="#FFEA00"/> <path d="M109.933 128.126C108.321 127.961 106.744 128.667 105.795 129.98C104.846 131.293 104.669 133.012 105.331 134.49C105.994 135.969 107.394 136.981 109.006 137.147C127.051 139.03 142.655 150.553 149.764 167.246C150.572 169.152 152.568 170.269 154.615 169.96C156.001 169.751 157.211 168.912 157.895 167.69C158.578 166.467 158.659 164.998 158.113 163.707C149.713 143.972 131.265 130.349 109.933 128.126Z" fill="#FFEA00"/> <path d="M227.453 19.6746C201.274 0.379251 164.412 5.9344 145.082 32.0888L15.7364 207.584C1.58252 226.769 0.385764 252.593 12.7059 273.004C25.0256 293.415 48.4328 304.389 72.0026 300.804C87.4629 298.492 101.365 290.114 110.632 277.524L239.977 102.029C259.238 75.8238 253.634 38.9703 227.453 19.6746ZM88.9529 285.257C71.6814 295.679 49.8318 294.671 33.5933 282.703C22.9122 274.88 15.7918 263.12 13.8101 250.029C11.8283 236.938 15.1487 223.598 23.0355 212.963C35.0038 196.725 55.5759 189.295 75.1585 194.138C94.741 198.981 109.478 215.143 112.498 235.089C115.517 255.034 106.224 274.835 88.9529 285.257ZM232.678 96.6503L121.882 246.978C123.455 226.751 114.486 207.143 98.1548 195.106C81.8237 183.07 60.4397 180.306 41.5849 187.796L152.381 37.4679C168.724 15.2943 199.947 10.5674 222.121 26.9101C244.294 43.2528 249.021 74.4767 232.678 96.6503Z" fill="#FFEA00"/> <path d="M42.1011 207.616C27.9701 216.143 20.3671 232.343 22.8376 248.662C26.235 270.93 47.0162 286.246 69.2921 282.9C85.611 280.43 98.8346 268.372 102.797 252.351C106.759 236.329 100.681 219.498 87.3945 209.705C74.1085 199.914 56.2321 199.089 42.1011 207.616ZM67.9348 273.934C50.6036 276.558 34.4273 264.635 31.8036 247.305C29.2006 229.979 41.1137 213.815 58.4335 211.173C75.7646 208.55 91.941 220.473 94.5646 237.803C97.1883 255.134 85.2659 271.311 67.9348 273.934Z" fill="#FFEA00"/> </g> <defs> <clipPath id="clip0"> <rect width="272" height="272" fill="white" transform="translate(-27 40.7138) rotate(-8.60856)"/> </clipPath> </defs> </svg>
