<?xml version="1.0" encoding="UTF-8"?>
<svg xmlns="http://www.w3.org/2000/svg" width="24" height="26" viewBox="0 0 24 26" fill="none"> <path d="M5.26829 10.5649C8.16496 10.5649 10.5132 13.1088 10.5132 16.2468C10.5132 19.3848 8.16496 21.9288 5.26829 21.9288C2.37162 21.9288 0.0234146 19.3848 0.0234146 16.2468L0 15.4351C0 9.15901 4.69641 4.07123 10.4898 4.07123V7.31806C8.48841 7.31806 6.60681 8.16239 5.19163 9.6955C4.91923 9.99065 4.67061 10.3047 4.44635 10.6345C4.71416 10.5889 4.98863 10.5649 5.26829 10.5649ZM18.7551 10.5649C21.6517 10.5649 24 13.1088 24 16.2468C24 19.3848 21.6517 21.9288 18.7551 21.9288C15.8585 21.9288 13.5102 19.3848 13.5102 16.2468L13.4868 15.4351C13.4868 9.15901 18.1832 4.07123 23.9766 4.07123V7.31806C21.9753 7.31806 20.0936 8.16239 18.6785 9.6955C18.406 9.99065 18.1574 10.3047 17.9331 10.6345C18.2009 10.5889 18.4754 10.5649 18.7551 10.5649Z" fill="#E31C1C"/> </svg>
