<?xml version="1.0" encoding="UTF-8"?>
<svg xmlns="http://www.w3.org/2000/svg" width="64" height="64" viewBox="0 0 64 64" fill="none"> <path d="M59.7322 1.06664H4.26775C1.91462 1.06664 0 2.98138 0 5.33438V40.5333C0 41.122 0.477875 41.5999 1.06662 41.5999H62.9332C63.522 41.5999 63.9999 41.122 63.9999 40.5333V5.33438C64 2.98138 62.0854 1.06664 59.7322 1.06664ZM61.8666 39.4666H2.13337V5.33438C2.13337 4.15676 3.09125 3.20001 4.26775 3.20001H59.7322C60.9087 3.20001 61.8666 4.15676 61.8666 5.33438V39.4666Z" fill="#999999"/> <path d="M62.9334 39.4666H1.06662C0.477875 39.4666 0 39.9445 0 40.5333V45.8655C0 48.2186 1.91462 50.1333 4.26775 50.1333H59.7323C62.0854 50.1333 64 48.2186 64 45.8655V40.5333C64 39.9445 63.5221 39.4666 62.9334 39.4666ZM61.8666 45.8656C61.8666 47.0433 60.9088 48 59.7323 48H4.26775C3.09125 48 2.13337 47.0433 2.13337 45.8656V41.6H61.8667V45.8656H61.8666Z" fill="#999999"/> <path d="M35.2 43.7334H28.8C28.2113 43.7334 27.7334 44.2113 27.7334 44.8C27.7334 45.3888 28.2113 45.8666 28.8 45.8666H35.2C35.7888 45.8666 36.2667 45.3888 36.2667 44.8C36.2667 44.2113 35.7888 43.7334 35.2 43.7334Z" fill="#999999"/> <path d="M58.6666 5.33337H5.33338C4.74463 5.33337 4.26675 5.81125 4.26675 6.4V40.5334C4.26675 41.1221 4.74463 41.6 5.33338 41.6H58.6668C59.2555 41.6 59.7334 41.1221 59.7334 40.5334V6.4C59.7334 5.81125 59.2555 5.33337 58.6666 5.33337ZM57.6 39.4666H6.4V7.46662H57.6V39.4666Z" fill="#999999"/> <path d="M45.8666 56.5334H18.1333C16.3691 56.5334 14.9333 57.9691 14.9333 59.7334C14.9333 61.4976 16.3691 62.9334 18.1333 62.9334H45.8667C47.631 62.9334 49.0667 61.4976 49.0667 59.7334C49.0667 57.9691 47.6309 56.5334 45.8666 56.5334ZM45.8666 60.8H18.1333C17.5446 60.8 17.0667 60.3211 17.0667 59.7334C17.0667 59.1456 17.5446 58.6667 18.1333 58.6667H45.8667C46.4555 58.6667 46.9334 59.1456 46.9334 59.7334C46.9334 60.3211 46.4555 60.8 45.8666 60.8Z" fill="#999999"/> <path d="M43.7333 56.5334C40.1941 56.5334 38.4 54.0214 38.4 49.0667C38.4 48.478 37.9221 48.0001 37.3333 48.0001H26.6667C26.078 48.0001 25.6001 48.478 25.6001 49.0667C25.6001 54.0214 23.806 56.5334 20.2667 56.5334C19.678 56.5334 19.2001 57.0112 19.2001 57.6C19.2001 58.1887 19.678 58.6666 20.2667 58.6666H43.7333C44.3221 58.6666 44.8 58.1887 44.8 57.6C44.8 57.0112 44.3221 56.5334 43.7333 56.5334ZM25.4624 56.5334C26.7755 55.0785 27.5487 52.912 27.7045 50.1334H36.2965C36.4511 52.912 37.2245 55.0785 38.5386 56.5334H25.4624Z" fill="#999999"/> <path d="M50.9696 32.4949L48.3947 29.92L49.8272 28.4875C50.0928 28.2219 50.1995 27.8358 50.1077 27.472C50.016 27.1083 49.7397 26.8203 49.3802 26.7115L38.7136 23.5115C38.3371 23.3984 37.9307 23.5019 37.6533 23.7792C37.375 24.0566 37.2726 24.464 37.3856 24.8395L40.5856 35.5061C40.6933 35.8666 40.9823 36.1429 41.3461 36.2346C41.7087 36.3243 42.096 36.2196 42.3616 35.9541L43.8698 34.4448L46.4447 37.0208C46.6442 37.2213 46.9162 37.3333 47.1988 37.3333C47.4815 37.3333 47.7535 37.2213 47.953 37.0208L50.9695 34.0031C51.3866 33.5861 51.3866 32.912 50.9696 32.4949ZM47.1988 34.7584L44.8543 32.4128C44.5823 32.1408 44.2261 32.0053 43.8698 32.0053C43.5125 32.0053 43.1562 32.1418 42.8853 32.4116L42.1152 33.1818L39.9978 26.1236L47.056 28.241L46.2303 29.0666C46.0031 29.2949 45.8783 29.5979 45.8783 29.92C45.8783 30.2433 46.0042 30.5483 46.2325 30.7744L48.7071 33.249L47.1988 34.7584Z" fill="#999999"/> <path d="M44.8 9.59999H14.9334C14.3446 9.59999 13.8668 10.0779 13.8668 10.6666V16C13.8668 16.5887 14.3446 17.0666 14.9334 17.0666H44.8C45.3888 17.0666 45.8666 16.5887 45.8666 16V10.6666C45.8666 10.0779 45.3888 9.59999 44.8 9.59999ZM43.7334 14.9334H16V11.7334H43.7334V14.9334V14.9334Z" fill="#999999"/> <path d="M27.7334 21.3334H19.2C18.6112 21.3334 18.1334 21.8112 18.1334 22.4V26.6666C18.1334 27.2554 18.6112 27.7333 19.2 27.7333H27.7334C28.3221 27.7333 28.8 27.2554 28.8 26.6666V22.4C28.8 21.8112 28.3221 21.3334 27.7334 21.3334ZM26.6666 25.6H20.2666V23.4666H26.6666V25.6V25.6Z" fill="#999999"/> <path d="M44.8 9.59999H14.9334C14.3446 9.59999 13.8668 10.0779 13.8668 10.6666V30.9332C13.8668 31.522 14.3446 31.9999 14.9334 31.9999H40.3265C40.6646 31.9999 40.9814 31.841 41.182 31.57C41.3836 31.2991 41.4455 30.9492 41.3484 30.626L39.998 26.1236L44.494 27.473C44.8173 27.5701 45.1671 27.5082 45.4369 27.3066C45.7078 27.1061 45.8668 26.7882 45.8668 26.4511V10.6666C45.8666 10.0779 45.3888 9.59999 44.8 9.59999ZM43.7334 25.0176L38.7125 23.5115C38.336 23.3984 37.9296 23.5019 37.6523 23.7792C37.3739 24.0576 37.2715 24.464 37.3845 24.8406L38.8928 29.8667H16V11.7334H43.7334V25.0176V25.0176Z" fill="#999999"/> </svg>
